<svg width="608" height="296" viewBox="0 0 608 296" fill="none" xmlns="http://www.w3.org/2000/svg">
<g clip-path="url(#clip0_598_2473)">
<rect width="608" height="296" fill="#12352E"/>
<path d="M171 91.0731V53.9269C171 45.1135 178.127 37.9597 186.941 37.927L420.941 37.0595C429.8 37.0267 437 44.1997 437 53.0594V91.9406C437 100.8 429.8 107.973 420.941 107.94L186.941 107.073C178.127 107.04 171 99.8865 171 91.0731Z" fill="#F2FFE5"/>
<path d="M165.989 164.48C159.653 164.48 154.373 159.904 154.373 152.672C154.373 145.44 159.845 140.832 165.925 140.832C172.197 140.832 175.429 144.672 176.325 148.352L172.165 149.664C171.621 147.488 169.861 145.088 165.925 145.088C162.533 145.088 158.949 147.52 158.949 152.672C158.949 157.504 162.341 160.16 165.989 160.16C169.861 160.16 171.749 157.632 172.357 155.52L176.485 156.768C175.621 160.256 172.357 164.48 165.989 164.48ZM183.778 164H179.522V140.832H183.778V164ZM187.281 159.712C187.281 156.896 189.361 155.328 191.985 154.944L195.857 154.368C196.753 154.24 197.041 153.792 197.041 153.248C197.041 152.128 196.177 151.2 194.385 151.2C192.529 151.2 191.505 152.384 191.377 153.76L187.601 152.96C187.857 150.496 190.129 147.776 194.353 147.776C199.345 147.776 201.201 150.592 201.201 153.76V161.504C201.201 162.336 201.297 163.456 201.393 164H197.489C197.393 163.584 197.329 162.72 197.329 162.112C196.529 163.36 195.025 164.448 192.689 164.448C189.329 164.448 187.281 162.176 187.281 159.712ZM193.585 161.28C195.377 161.28 197.041 160.416 197.041 157.632V156.928L193.489 157.472C192.401 157.632 191.537 158.24 191.537 159.456C191.537 160.384 192.209 161.28 193.585 161.28ZM209.747 164H205.491V148.256H209.747V164ZM204.979 143.104C204.979 141.632 206.163 140.448 207.603 140.448C209.075 140.448 210.227 141.632 210.227 143.104C210.227 144.512 209.075 145.696 207.603 145.696C206.163 145.696 204.979 144.512 204.979 143.104ZM218.559 164H214.303V148.256H218.367V150.176C219.231 148.64 221.247 147.808 222.975 147.808C225.119 147.808 226.847 148.736 227.647 150.432C228.895 148.512 230.559 147.808 232.639 147.808C235.551 147.808 238.335 149.568 238.335 153.792V164H234.207V154.656C234.207 152.96 233.375 151.68 231.423 151.68C229.599 151.68 228.511 153.088 228.511 154.784V164H224.287V154.656C224.287 152.96 223.423 151.68 221.503 151.68C219.647 151.68 218.559 153.056 218.559 154.784V164ZM241.303 159.616L244.951 158.816C245.047 160.064 245.975 161.216 247.831 161.216C249.239 161.216 249.911 160.48 249.911 159.648C249.911 158.944 249.431 158.368 248.215 158.112L246.135 157.632C243.095 156.96 241.719 155.136 241.719 152.928C241.719 150.112 244.215 147.776 247.607 147.776C252.087 147.776 253.591 150.624 253.783 152.32L250.231 153.12C250.103 152.192 249.431 151.008 247.639 151.008C246.519 151.008 245.623 151.68 245.623 152.576C245.623 153.344 246.199 153.824 247.063 153.984L249.303 154.464C252.407 155.104 253.975 156.992 253.975 159.296C253.975 161.856 251.991 164.48 247.863 164.48C243.127 164.48 241.495 161.408 241.303 159.616ZM263.959 159.616L267.607 158.816C267.703 160.064 268.631 161.216 270.487 161.216C271.895 161.216 272.567 160.48 272.567 159.648C272.567 158.944 272.087 158.368 270.871 158.112L268.791 157.632C265.751 156.96 264.375 155.136 264.375 152.928C264.375 150.112 266.871 147.776 270.263 147.776C274.743 147.776 276.247 150.624 276.439 152.32L272.887 153.12C272.759 152.192 272.087 151.008 270.295 151.008C269.175 151.008 268.279 151.68 268.279 152.576C268.279 153.344 268.855 153.824 269.719 153.984L271.959 154.464C275.063 155.104 276.631 156.992 276.631 159.296C276.631 161.856 274.647 164.48 270.519 164.48C265.783 164.48 264.151 161.408 263.959 159.616ZM283.095 154.336H290.135C290.071 152.768 289.047 151.232 286.615 151.232C284.407 151.232 283.191 152.896 283.095 154.336ZM290.551 158.432L294.103 159.488C293.303 162.208 290.807 164.48 286.935 164.48C282.615 164.48 278.807 161.376 278.807 156.064C278.807 151.04 282.519 147.776 286.551 147.776C291.415 147.776 294.327 150.88 294.327 155.936C294.327 156.544 294.263 157.184 294.263 157.248H282.999C283.095 159.328 284.855 160.832 286.967 160.832C288.951 160.832 290.039 159.84 290.551 158.432ZM302.926 143.552V148.256H306.094V152.032H302.926V158.624C302.926 160 303.566 160.448 304.782 160.448C305.294 160.448 305.87 160.384 306.094 160.32V163.84C305.71 164 304.942 164.224 303.694 164.224C300.622 164.224 298.702 162.4 298.702 159.36V152.032H295.854V148.256H296.654C298.318 148.256 299.086 147.168 299.086 145.76V143.552H302.926ZM314.864 143.552V148.256H318.032V152.032H314.864V158.624C314.864 160 315.504 160.448 316.72 160.448C317.232 160.448 317.808 160.384 318.032 160.32V163.84C317.648 164 316.88 164.224 315.632 164.224C312.56 164.224 310.64 162.4 310.64 159.36V152.032H307.792V148.256H308.592C310.256 148.256 311.024 147.168 311.024 145.76V143.552H314.864ZM325.122 164H320.866V140.832H325.122V164ZM332.782 154.336H339.822C339.758 152.768 338.734 151.232 336.302 151.232C334.094 151.232 332.878 152.896 332.782 154.336ZM340.238 158.432L343.79 159.488C342.99 162.208 340.494 164.48 336.622 164.48C332.302 164.48 328.494 161.376 328.494 156.064C328.494 151.04 332.206 147.776 336.238 147.776C341.102 147.776 344.014 150.88 344.014 155.936C344.014 156.544 343.95 157.184 343.95 157.248H332.686C332.782 159.328 334.542 160.832 336.654 160.832C338.638 160.832 339.726 159.84 340.238 158.432ZM362.374 140.832V161.152C362.374 162.208 362.438 163.36 362.502 164H358.438C358.374 163.68 358.278 162.912 358.278 162.176C357.574 163.424 355.974 164.384 353.862 164.384C349.382 164.384 346.182 160.864 346.182 156.096C346.182 151.488 349.286 147.872 353.734 147.872C356.454 147.872 357.734 148.992 358.182 149.824V140.832H362.374ZM350.47 156.096C350.47 158.912 352.134 160.576 354.374 160.576C356.55 160.576 358.246 158.912 358.246 156.064C358.246 153.248 356.55 151.68 354.374 151.68C352.198 151.68 350.47 153.28 350.47 156.096ZM373.553 159.616L377.201 158.816C377.297 160.064 378.225 161.216 380.081 161.216C381.489 161.216 382.161 160.48 382.161 159.648C382.161 158.944 381.681 158.368 380.465 158.112L378.385 157.632C375.345 156.96 373.969 155.136 373.969 152.928C373.969 150.112 376.465 147.776 379.857 147.776C384.337 147.776 385.841 150.624 386.033 152.32L382.481 153.12C382.353 152.192 381.681 151.008 379.889 151.008C378.769 151.008 377.873 151.68 377.873 152.576C377.873 153.344 378.449 153.824 379.313 153.984L381.553 154.464C384.657 155.104 386.225 156.992 386.225 159.296C386.225 161.856 384.241 164.48 380.113 164.48C375.377 164.48 373.745 161.408 373.553 159.616ZM396.657 160.608C398.737 160.608 400.657 159.104 400.657 156.128C400.657 153.152 398.737 151.648 396.657 151.648C394.577 151.648 392.657 153.152 392.657 156.128C392.657 159.072 394.577 160.608 396.657 160.608ZM396.657 147.776C401.361 147.776 404.913 151.264 404.913 156.128C404.913 160.96 401.361 164.48 396.657 164.48C391.953 164.48 388.401 160.96 388.401 156.128C388.401 151.264 391.953 147.776 396.657 147.776ZM423.474 144.352C422.514 144.352 421.266 144.768 421.266 146.528V148.256H424.818V151.904H421.266V164H416.978V151.904H414.354V148.256H416.978V146.464C416.978 142.912 419.218 140.608 422.706 140.608C423.602 140.608 424.466 140.768 424.818 140.928V144.512C424.594 144.448 424.178 144.352 423.474 144.352ZM426.437 159.712C426.437 156.896 428.517 155.328 431.141 154.944L435.013 154.368C435.909 154.24 436.197 153.792 436.197 153.248C436.197 152.128 435.333 151.2 433.541 151.2C431.685 151.2 430.661 152.384 430.533 153.76L426.757 152.96C427.013 150.496 429.285 147.776 433.509 147.776C438.501 147.776 440.357 150.592 440.357 153.76V161.504C440.357 162.336 440.453 163.456 440.549 164H436.645C436.549 163.584 436.485 162.72 436.485 162.112C435.685 163.36 434.181 164.448 431.845 164.448C428.485 164.448 426.437 162.176 426.437 159.712ZM432.741 161.28C434.533 161.28 436.197 160.416 436.197 157.632V156.928L432.645 157.472C431.557 157.632 430.693 158.24 430.693 159.456C430.693 160.384 431.365 161.28 432.741 161.28ZM454.247 148.192V152.48C453.767 152.384 453.351 152.352 452.967 152.352C450.791 152.352 448.903 153.408 448.903 156.8V164H444.647V148.256H448.775V150.592C449.735 148.512 451.911 148.128 453.255 148.128C453.607 148.128 453.927 148.16 454.247 148.192Z" fill="white"/>
<path d="M142.244 195.632L144.692 186.656H146.308L143.076 198H141.46L138.5 188.8L135.572 198H134.004L130.724 186.656H132.34L134.836 195.536L137.684 186.656H139.332L142.244 195.632ZM148.24 193.36H152.448C152.416 192.256 151.696 191.392 150.336 191.392C149.072 191.392 148.304 192.368 148.24 193.36ZM152.672 195.36L153.968 195.808C153.536 197.168 152.304 198.24 150.512 198.24C148.448 198.24 146.64 196.736 146.64 194.128C146.64 191.712 148.384 190.064 150.32 190.064C152.688 190.064 154.016 191.696 154.016 194.096C154.016 194.288 154 194.48 153.984 194.576H148.192C148.224 195.952 149.216 196.912 150.512 196.912C151.76 196.912 152.384 196.224 152.672 195.36ZM163.232 196.896C164.512 196.896 165.632 195.936 165.632 194.144C165.632 192.368 164.512 191.408 163.232 191.408C161.952 191.408 160.832 192.368 160.832 194.144C160.832 195.936 161.952 196.896 163.232 196.896ZM163.232 190.064C165.536 190.064 167.168 191.808 167.168 194.144C167.168 196.496 165.536 198.24 163.232 198.24C160.928 198.24 159.296 196.496 159.296 194.144C159.296 191.808 160.928 190.064 163.232 190.064ZM177.381 187.776C176.852 187.776 176.165 188.032 176.165 189.088V190.304H178.021V191.664H176.165V198H174.613V191.664H171.109V198H169.557V191.664H168.133V190.304H169.557V189.008C169.557 187.296 170.693 186.368 172.085 186.368C172.597 186.368 172.917 186.48 172.981 186.528V187.872C172.901 187.84 172.709 187.776 172.325 187.776C171.797 187.776 171.109 188.032 171.109 189.088V190.304H174.613V189.008C174.613 187.296 175.749 186.368 177.141 186.368C177.653 186.368 177.973 186.48 178.037 186.528V187.872C177.957 187.84 177.765 187.776 177.381 187.776ZM180.615 193.36H184.823C184.791 192.256 184.071 191.392 182.711 191.392C181.447 191.392 180.679 192.368 180.615 193.36ZM185.047 195.36L186.343 195.808C185.911 197.168 184.679 198.24 182.887 198.24C180.823 198.24 179.015 196.736 179.015 194.128C179.015 191.712 180.759 190.064 182.695 190.064C185.063 190.064 186.391 191.696 186.391 194.096C186.391 194.288 186.375 194.48 186.359 194.576H180.567C180.599 195.952 181.591 196.912 182.887 196.912C184.135 196.912 184.759 196.224 185.047 195.36ZM192.583 190.224V191.824C192.359 191.792 192.135 191.776 191.927 191.776C190.663 191.776 189.815 192.448 189.815 194.144V198H188.311V190.304H189.783V191.648C190.343 190.464 191.303 190.176 192.087 190.176C192.295 190.176 192.503 190.208 192.583 190.224ZM200.202 187.872V190.304H201.866V191.664H200.202V195.664C200.202 196.368 200.49 196.72 201.274 196.72C201.466 196.72 201.738 196.688 201.866 196.656V197.936C201.738 197.984 201.354 198.08 200.842 198.08C199.53 198.08 198.698 197.28 198.698 195.888V191.664H197.226V190.304H197.642C198.474 190.304 198.826 189.792 198.826 189.12V187.872H200.202ZM205.378 193.472V198H203.874V186.416H205.378V191.2C205.938 190.384 206.834 190.08 207.714 190.08C209.554 190.08 210.466 191.408 210.466 193.12V198H208.962V193.376C208.962 192.304 208.514 191.44 207.17 191.44C206.018 191.44 205.41 192.336 205.378 193.472ZM213.834 193.36H218.042C218.01 192.256 217.29 191.392 215.93 191.392C214.666 191.392 213.898 192.368 213.834 193.36ZM218.266 195.36L219.562 195.808C219.13 197.168 217.898 198.24 216.106 198.24C214.042 198.24 212.234 196.736 212.234 194.128C212.234 191.712 213.978 190.064 215.914 190.064C218.282 190.064 219.61 191.696 219.61 194.096C219.61 194.288 219.594 194.48 219.578 194.576H213.786C213.818 195.952 214.81 196.912 216.106 196.912C217.354 196.912 217.978 196.224 218.266 195.36ZM229.402 191.664H227.546V198H225.994V191.664H224.57V190.304H225.994V189.008C225.994 187.296 227.13 186.368 228.522 186.368C229.034 186.368 229.354 186.48 229.418 186.528V187.872C229.338 187.84 229.146 187.776 228.762 187.776C228.234 187.776 227.546 188.032 227.546 189.088V190.304H229.402V191.664ZM230.3 195.936C230.3 194.56 231.308 193.792 232.636 193.6L234.716 193.296C235.18 193.232 235.308 192.992 235.308 192.72C235.308 191.968 234.812 191.344 233.644 191.344C232.588 191.344 231.996 192 231.9 192.896L230.46 192.56C230.62 191.088 231.948 190.064 233.612 190.064C235.916 190.064 236.812 191.376 236.812 192.88V196.736C236.812 197.408 236.876 197.808 236.908 198H235.436C235.404 197.808 235.356 197.52 235.356 196.96C235.02 197.504 234.252 198.24 232.876 198.24C231.308 198.24 230.3 197.152 230.3 195.936ZM233.084 196.976C234.316 196.976 235.308 196.384 235.308 194.704V194.352L232.956 194.704C232.316 194.8 231.836 195.168 231.836 195.856C231.836 196.432 232.316 196.976 233.084 196.976ZM238.435 196L239.795 195.52C239.891 196.32 240.499 196.96 241.587 196.96C242.435 196.96 242.899 196.48 242.899 195.936C242.899 195.456 242.547 195.088 241.907 194.944L240.595 194.656C239.395 194.4 238.675 193.584 238.675 192.496C238.675 191.184 239.907 190.064 241.411 190.064C243.523 190.064 244.179 191.44 244.339 192.128L243.011 192.624C242.947 192.224 242.627 191.344 241.411 191.344C240.643 191.344 240.131 191.84 240.131 192.368C240.131 192.832 240.419 193.168 241.011 193.296L242.259 193.568C243.651 193.872 244.387 194.72 244.387 195.856C244.387 196.944 243.475 198.24 241.571 198.24C239.459 198.24 238.563 196.88 238.435 196ZM248.405 187.872V190.304H250.069V191.664H248.405V195.664C248.405 196.368 248.693 196.72 249.477 196.72C249.669 196.72 249.941 196.688 250.069 196.656V197.936C249.941 197.984 249.557 198.08 249.045 198.08C247.733 198.08 246.901 197.28 246.901 195.888V191.664H245.429V190.304H245.845C246.677 190.304 247.029 189.792 247.029 189.12V187.872H248.405ZM252.975 193.36H257.183C257.151 192.256 256.431 191.392 255.071 191.392C253.807 191.392 253.039 192.368 252.975 193.36ZM257.407 195.36L258.703 195.808C258.271 197.168 257.039 198.24 255.247 198.24C253.183 198.24 251.375 196.736 251.375 194.128C251.375 191.712 253.119 190.064 255.055 190.064C257.423 190.064 258.751 191.696 258.751 194.096C258.751 194.288 258.735 194.48 258.719 194.576H252.927C252.959 195.952 253.951 196.912 255.247 196.912C256.495 196.912 257.119 196.224 257.407 195.36ZM259.951 196L261.311 195.52C261.407 196.32 262.015 196.96 263.103 196.96C263.951 196.96 264.415 196.48 264.415 195.936C264.415 195.456 264.063 195.088 263.423 194.944L262.111 194.656C260.911 194.4 260.191 193.584 260.191 192.496C260.191 191.184 261.423 190.064 262.927 190.064C265.039 190.064 265.695 191.44 265.855 192.128L264.527 192.624C264.463 192.224 264.143 191.344 262.927 191.344C262.159 191.344 261.647 191.84 261.647 192.368C261.647 192.832 261.935 193.168 262.527 193.296L263.775 193.568C265.167 193.872 265.903 194.72 265.903 195.856C265.903 196.944 264.991 198.24 263.087 198.24C260.975 198.24 260.079 196.88 259.951 196ZM269.921 187.872V190.304H271.585V191.664H269.921V195.664C269.921 196.368 270.209 196.72 270.993 196.72C271.185 196.72 271.457 196.688 271.585 196.656V197.936C271.457 197.984 271.073 198.08 270.561 198.08C269.249 198.08 268.417 197.28 268.417 195.888V191.664H266.945V190.304H267.361C268.193 190.304 268.545 189.792 268.545 189.12V187.872H269.921ZM280.825 191.456C279.609 191.456 278.489 192.352 278.489 194.144C278.489 195.904 279.593 196.848 280.841 196.848C282.281 196.848 282.809 195.872 282.985 195.264L284.312 195.84C283.945 196.944 282.841 198.24 280.841 198.24C278.601 198.24 276.953 196.48 276.953 194.144C276.953 191.744 278.633 190.064 280.825 190.064C282.873 190.064 283.929 191.344 284.249 192.512L282.889 193.088C282.697 192.336 282.137 191.456 280.825 191.456ZM287.581 198H286.077V186.416H287.581V198ZM289.659 195.936C289.659 194.56 290.667 193.792 291.995 193.6L294.075 193.296C294.539 193.232 294.667 192.992 294.667 192.72C294.667 191.968 294.171 191.344 293.003 191.344C291.947 191.344 291.355 192 291.259 192.896L289.819 192.56C289.979 191.088 291.307 190.064 292.971 190.064C295.275 190.064 296.171 191.376 296.171 192.88V196.736C296.171 197.408 296.235 197.808 296.267 198H294.795C294.763 197.808 294.715 197.52 294.715 196.96C294.379 197.504 293.611 198.24 292.235 198.24C290.667 198.24 289.659 197.152 289.659 195.936ZM292.443 196.976C293.675 196.976 294.667 196.384 294.667 194.704V194.352L292.315 194.704C291.675 194.8 291.195 195.168 291.195 195.856C291.195 196.432 291.675 196.976 292.443 196.976ZM300.002 198H298.514V190.304H300.002V198ZM298.178 187.392C298.178 186.784 298.658 186.304 299.25 186.304C299.858 186.304 300.338 186.784 300.338 187.392C300.338 187.984 299.858 188.464 299.25 188.464C298.658 188.464 298.178 187.984 298.178 187.392ZM304.049 198H302.561V190.304H304.001V191.328C304.481 190.48 305.441 190.08 306.337 190.08C307.297 190.08 308.225 190.544 308.641 191.536C309.249 190.432 310.241 190.08 311.217 190.08C312.561 190.08 313.873 190.992 313.873 193.008V198H312.385V193.168C312.385 192.16 311.889 191.408 310.753 191.408C309.697 191.408 308.977 192.24 308.977 193.344V198H307.473V193.168C307.473 192.176 306.993 191.408 305.841 191.408C304.769 191.408 304.049 192.208 304.049 193.36V198ZM321.768 201.04H320.28V190.304H321.736V191.504C322.152 190.736 323.064 190.128 324.312 190.128C326.616 190.128 327.848 191.904 327.848 194.144C327.848 196.432 326.52 198.208 324.264 198.208C323.08 198.208 322.184 197.648 321.768 196.96V201.04ZM326.312 194.144C326.312 192.608 325.448 191.456 324.04 191.456C322.664 191.456 321.752 192.608 321.752 194.144C321.752 195.728 322.664 196.864 324.04 196.864C325.432 196.864 326.312 195.728 326.312 194.144ZM329.284 195.936C329.284 194.56 330.292 193.792 331.62 193.6L333.7 193.296C334.164 193.232 334.292 192.992 334.292 192.72C334.292 191.968 333.796 191.344 332.628 191.344C331.572 191.344 330.98 192 330.884 192.896L329.444 192.56C329.604 191.088 330.932 190.064 332.596 190.064C334.9 190.064 335.796 191.376 335.796 192.88V196.736C335.796 197.408 335.86 197.808 335.892 198H334.42C334.388 197.808 334.34 197.52 334.34 196.96C334.004 197.504 333.236 198.24 331.86 198.24C330.292 198.24 329.284 197.152 329.284 195.936ZM332.068 196.976C333.3 196.976 334.292 196.384 334.292 194.704V194.352L331.94 194.704C331.3 194.8 330.82 195.168 330.82 195.856C330.82 196.432 331.3 196.976 332.068 196.976ZM339.903 201.216H338.255L340.175 197.152L336.863 190.304H338.591L340.991 195.616L343.295 190.304H344.911L339.903 201.216ZM349.342 196.896C350.622 196.896 351.742 195.936 351.742 194.144C351.742 192.368 350.622 191.408 349.342 191.408C348.062 191.408 346.942 192.368 346.942 194.144C346.942 195.936 348.062 196.896 349.342 196.896ZM349.342 190.064C351.646 190.064 353.278 191.808 353.278 194.144C353.278 196.496 351.646 198.24 349.342 198.24C347.038 198.24 345.406 196.496 345.406 194.144C345.406 191.808 347.038 190.064 349.342 190.064ZM360.196 197.072C359.78 197.872 358.82 198.24 357.924 198.24C356.132 198.24 355.044 196.896 355.044 195.152V190.304H356.548V194.928C356.548 195.984 357.028 196.912 358.292 196.912C359.508 196.912 360.116 196.112 360.116 194.944V190.304H361.62V196.576C361.62 197.184 361.668 197.728 361.7 198H360.26C360.228 197.824 360.196 197.392 360.196 197.072ZM366.202 187.872V190.304H367.866V191.664H366.202V195.664C366.202 196.368 366.49 196.72 367.274 196.72C367.466 196.72 367.738 196.688 367.866 196.656V197.936C367.738 197.984 367.354 198.08 366.842 198.08C365.53 198.08 364.698 197.28 364.698 195.888V191.664H363.226V190.304H363.642C364.474 190.304 364.826 189.792 364.826 189.12V187.872H366.202ZM375.362 198H373.874V190.304H375.362V198ZM373.538 187.392C373.538 186.784 374.018 186.304 374.61 186.304C375.218 186.304 375.698 186.784 375.698 187.392C375.698 187.984 375.218 188.464 374.61 188.464C374.018 188.464 373.538 187.984 373.538 187.392ZM379.425 193.552V198H377.921V190.304H379.393V191.408C379.953 190.448 380.865 190.08 381.761 190.08C383.601 190.08 384.513 191.408 384.513 193.12V198H383.009V193.376C383.009 192.304 382.561 191.44 381.217 191.44C380.033 191.44 379.425 192.384 379.425 193.552ZM392.921 187.872V190.304H394.585V191.664H392.921V195.664C392.921 196.368 393.209 196.72 393.993 196.72C394.185 196.72 394.457 196.688 394.585 196.656V197.936C394.457 197.984 394.073 198.08 393.561 198.08C392.249 198.08 391.417 197.28 391.417 195.888V191.664H389.945V190.304H390.361C391.193 190.304 391.545 189.792 391.545 189.12V187.872H392.921ZM398.097 193.472V198H396.593V186.416H398.097V191.2C398.657 190.384 399.553 190.08 400.433 190.08C402.273 190.08 403.185 191.408 403.185 193.12V198H401.681V193.376C401.681 192.304 401.233 191.44 399.889 191.44C398.737 191.44 398.129 192.336 398.097 193.472ZM406.553 193.36H410.761C410.729 192.256 410.009 191.392 408.649 191.392C407.385 191.392 406.617 192.368 406.553 193.36ZM410.985 195.36L412.281 195.808C411.849 197.168 410.617 198.24 408.825 198.24C406.761 198.24 404.953 196.736 404.953 194.128C404.953 191.712 406.697 190.064 408.633 190.064C411.001 190.064 412.329 191.696 412.329 194.096C412.329 194.288 412.313 194.48 412.297 194.576H406.505C406.537 195.952 407.529 196.912 408.825 196.912C410.073 196.912 410.697 196.224 410.985 195.36ZM421.481 191.456C420.265 191.456 419.145 192.352 419.145 194.144C419.145 195.904 420.249 196.848 421.497 196.848C422.937 196.848 423.465 195.872 423.641 195.264L424.969 195.84C424.601 196.944 423.497 198.24 421.497 198.24C419.257 198.24 417.609 196.48 417.609 194.144C417.609 191.744 419.289 190.064 421.481 190.064C423.529 190.064 424.585 191.344 424.905 192.512L423.545 193.088C423.353 192.336 422.793 191.456 421.481 191.456ZM429.951 196.896C431.231 196.896 432.351 195.936 432.351 194.144C432.351 192.368 431.231 191.408 429.951 191.408C428.671 191.408 427.551 192.368 427.551 194.144C427.551 195.936 428.671 196.896 429.951 196.896ZM429.951 190.064C432.255 190.064 433.887 191.808 433.887 194.144C433.887 196.496 432.255 198.24 429.951 198.24C427.647 198.24 426.015 196.496 426.015 194.144C426.015 191.808 427.647 190.064 429.951 190.064ZM440.805 197.072C440.389 197.872 439.429 198.24 438.533 198.24C436.741 198.24 435.653 196.896 435.653 195.152V190.304H437.157V194.928C437.157 195.984 437.637 196.912 438.901 196.912C440.117 196.912 440.725 196.112 440.725 194.944V190.304H442.229V196.576C442.229 197.184 442.277 197.728 442.309 198H440.869C440.837 197.824 440.805 197.392 440.805 197.072ZM446.3 193.552V198H444.796V190.304H446.268V191.408C446.828 190.448 447.74 190.08 448.636 190.08C450.476 190.08 451.388 191.408 451.388 193.12V198H449.884V193.376C449.884 192.304 449.436 191.44 448.092 191.44C446.908 191.44 446.3 192.384 446.3 193.552ZM455.796 187.872V190.304H457.46V191.664H455.796V195.664C455.796 196.368 456.084 196.72 456.868 196.72C457.06 196.72 457.332 196.688 457.46 196.656V197.936C457.332 197.984 456.948 198.08 456.436 198.08C455.124 198.08 454.292 197.28 454.292 195.888V191.664H452.82V190.304H453.236C454.068 190.304 454.42 189.792 454.42 189.12V187.872H455.796ZM463.583 190.224V191.824C463.359 191.792 463.135 191.776 462.927 191.776C461.663 191.776 460.815 192.448 460.815 194.144V198H459.311V190.304H460.783V191.648C461.343 190.464 462.303 190.176 463.087 190.176C463.295 190.176 463.503 190.208 463.583 190.224ZM467.341 201.216H465.693L467.613 197.152L464.301 190.304H466.029L468.429 195.616L470.733 190.304H472.349L467.341 201.216ZM194.757 214.304H196.309L198.309 220.096L200.005 214.304H201.589L199.093 222H197.541L195.493 216.144L193.493 222H191.909L189.381 214.304H191.029L192.757 220.096L194.757 214.304ZM204.596 222H203.108V214.304H204.596V222ZM202.772 211.392C202.772 210.784 203.252 210.304 203.844 210.304C204.452 210.304 204.932 210.784 204.932 211.392C204.932 211.984 204.452 212.464 203.844 212.464C203.252 212.464 202.772 211.984 202.772 211.392ZM209.171 211.872V214.304H210.835V215.664H209.171V219.664C209.171 220.368 209.459 220.72 210.243 220.72C210.435 220.72 210.707 220.688 210.835 220.656V221.936C210.707 221.984 210.323 222.08 209.811 222.08C208.499 222.08 207.667 221.28 207.667 219.888V215.664H206.195V214.304H206.611C207.443 214.304 207.795 213.792 207.795 213.12V211.872H209.171ZM214.347 217.472V222H212.843V210.416H214.347V215.2C214.907 214.384 215.803 214.08 216.683 214.08C218.523 214.08 219.435 215.408 219.435 217.12V222H217.931V217.376C217.931 216.304 217.483 215.44 216.139 215.44C214.987 215.44 214.379 216.336 214.347 217.472ZM225.459 221.632L225.971 220.336C226.419 220.608 227.187 220.832 227.859 220.832C230.371 220.832 231.395 219.184 231.459 217.152C231.091 217.84 230.179 218.48 228.771 218.48C226.979 218.48 225.187 217.264 225.187 214.976C225.187 212.832 226.979 211.392 229.011 211.392C231.043 211.392 233.043 212.848 233.043 216.16C233.043 219.968 231.347 222.24 227.859 222.24C227.059 222.24 225.971 221.984 225.459 221.632ZM231.251 214.944C231.251 213.6 230.147 212.768 229.011 212.768C227.859 212.768 226.771 213.584 226.771 214.944C226.771 216.352 227.827 217.136 229.011 217.136C230.163 217.136 231.251 216.32 231.251 214.944ZM238.246 216.048C239.35 216.032 240.166 215.36 240.166 214.352C240.166 213.424 239.414 212.688 238.246 212.688C237.078 212.688 236.326 213.424 236.326 214.352C236.326 215.36 237.142 216.032 238.246 216.048ZM238.246 220.88C239.638 220.88 240.422 220.112 240.422 219.136C240.422 218.144 239.622 217.36 238.246 217.36C236.87 217.36 236.07 218.144 236.07 219.136C236.07 220.112 236.854 220.88 238.246 220.88ZM238.246 222.24C235.862 222.24 234.486 220.928 234.486 219.264C234.486 218 235.35 217.072 236.454 216.704C235.51 216.352 234.758 215.424 234.758 214.272C234.758 212.576 236.262 211.392 238.246 211.392C240.23 211.392 241.734 212.576 241.734 214.272C241.734 215.392 240.998 216.352 240.038 216.704C241.142 217.056 242.006 218 242.006 219.264C242.006 220.928 240.63 222.24 238.246 222.24ZM244.849 214.032C244.849 214.768 245.393 215.296 246.081 215.296C246.785 215.296 247.313 214.768 247.313 214.032C247.313 213.312 246.785 212.784 246.081 212.784C245.393 212.784 244.849 213.312 244.849 214.032ZM243.521 214.032C243.521 212.624 244.705 211.52 246.081 211.52C247.457 211.52 248.657 212.624 248.657 214.032C248.657 215.456 247.457 216.56 246.081 216.56C244.705 216.56 243.521 215.456 243.521 214.032ZM251.185 219.6C251.185 220.336 251.729 220.864 252.417 220.864C253.121 220.864 253.649 220.336 253.649 219.6C253.649 218.88 253.121 218.352 252.417 218.352C251.729 218.352 251.185 218.88 251.185 219.6ZM249.857 219.6C249.857 218.192 251.041 217.088 252.417 217.088C253.793 217.088 254.993 218.192 254.993 219.6C254.993 221.024 253.793 222.128 252.417 222.128C251.041 222.128 249.857 221.024 249.857 219.6ZM246.273 222H244.801L252.257 211.632H253.697L246.273 222ZM264.231 215.456C263.015 215.456 261.895 216.352 261.895 218.144C261.895 219.904 262.999 220.848 264.247 220.848C265.687 220.848 266.215 219.872 266.391 219.264L267.719 219.84C267.351 220.944 266.247 222.24 264.247 222.24C262.007 222.24 260.359 220.48 260.359 218.144C260.359 215.744 262.039 214.064 264.231 214.064C266.279 214.064 267.335 215.344 267.655 216.512L266.295 217.088C266.103 216.336 265.543 215.456 264.231 215.456ZM274.477 221.072C274.061 221.872 273.101 222.24 272.205 222.24C270.413 222.24 269.325 220.896 269.325 219.152V214.304H270.829V218.928C270.829 219.984 271.309 220.912 272.573 220.912C273.789 220.912 274.397 220.112 274.397 218.944V214.304H275.901V220.576C275.901 221.184 275.949 221.728 275.981 222H274.541C274.509 221.824 274.477 221.392 274.477 221.072ZM277.748 220L279.108 219.52C279.204 220.32 279.812 220.96 280.9 220.96C281.748 220.96 282.212 220.48 282.212 219.936C282.212 219.456 281.86 219.088 281.22 218.944L279.908 218.656C278.708 218.4 277.988 217.584 277.988 216.496C277.988 215.184 279.22 214.064 280.724 214.064C282.836 214.064 283.492 215.44 283.652 216.128L282.324 216.624C282.26 216.224 281.94 215.344 280.724 215.344C279.956 215.344 279.444 215.84 279.444 216.368C279.444 216.832 279.732 217.168 280.324 217.296L281.572 217.568C282.964 217.872 283.7 218.72 283.7 219.856C283.7 220.944 282.788 222.24 280.884 222.24C278.772 222.24 277.876 220.88 277.748 220ZM287.718 211.872V214.304H289.382V215.664H287.718V219.664C287.718 220.368 288.006 220.72 288.79 220.72C288.982 220.72 289.254 220.688 289.382 220.656V221.936C289.254 221.984 288.87 222.08 288.358 222.08C287.046 222.08 286.214 221.28 286.214 219.888V215.664H284.742V214.304H285.158C285.99 214.304 286.342 213.792 286.342 213.12V211.872H287.718ZM294.607 220.896C295.887 220.896 297.007 219.936 297.007 218.144C297.007 216.368 295.887 215.408 294.607 215.408C293.327 215.408 292.207 216.368 292.207 218.144C292.207 219.936 293.327 220.896 294.607 220.896ZM294.607 214.064C296.911 214.064 298.543 215.808 298.543 218.144C298.543 220.496 296.911 222.24 294.607 222.24C292.303 222.24 290.671 220.496 290.671 218.144C290.671 215.808 292.303 214.064 294.607 214.064ZM301.956 222H300.468V214.304H301.908V215.328C302.388 214.48 303.348 214.08 304.244 214.08C305.204 214.08 306.132 214.544 306.548 215.536C307.156 214.432 308.148 214.08 309.124 214.08C310.468 214.08 311.78 214.992 311.78 217.008V222H310.292V217.168C310.292 216.16 309.796 215.408 308.66 215.408C307.604 215.408 306.884 216.24 306.884 217.344V222H305.38V217.168C305.38 216.176 304.9 215.408 303.748 215.408C302.676 215.408 301.956 216.208 301.956 217.36V222ZM315.162 217.36H319.37C319.338 216.256 318.618 215.392 317.258 215.392C315.994 215.392 315.226 216.368 315.162 217.36ZM319.594 219.36L320.89 219.808C320.458 221.168 319.226 222.24 317.434 222.24C315.37 222.24 313.562 220.736 313.562 218.128C313.562 215.712 315.306 214.064 317.242 214.064C319.61 214.064 320.938 215.696 320.938 218.096C320.938 218.288 320.922 218.48 320.906 218.576H315.114C315.146 219.952 316.138 220.912 317.434 220.912C318.682 220.912 319.306 220.224 319.594 219.36ZM327.13 214.224V215.824C326.906 215.792 326.682 215.776 326.474 215.776C325.21 215.776 324.362 216.448 324.362 218.144V222H322.858V214.304H324.33V215.648C324.89 214.464 325.85 214.176 326.634 214.176C326.842 214.176 327.05 214.208 327.13 214.224ZM332.013 220L333.373 219.52C333.469 220.32 334.077 220.96 335.165 220.96C336.013 220.96 336.477 220.48 336.477 219.936C336.477 219.456 336.125 219.088 335.485 218.944L334.173 218.656C332.973 218.4 332.253 217.584 332.253 216.496C332.253 215.184 333.485 214.064 334.989 214.064C337.101 214.064 337.757 215.44 337.917 216.128L336.589 216.624C336.525 216.224 336.205 215.344 334.989 215.344C334.221 215.344 333.709 215.84 333.709 216.368C333.709 216.832 333.997 217.168 334.589 217.296L335.837 217.568C337.229 217.872 337.965 218.72 337.965 219.856C337.965 220.944 337.053 222.24 335.149 222.24C333.037 222.24 332.141 220.88 332.013 220ZM339.331 219.936C339.331 218.56 340.339 217.792 341.667 217.6L343.747 217.296C344.211 217.232 344.339 216.992 344.339 216.72C344.339 215.968 343.843 215.344 342.675 215.344C341.619 215.344 341.027 216 340.931 216.896L339.491 216.56C339.651 215.088 340.979 214.064 342.643 214.064C344.947 214.064 345.843 215.376 345.843 216.88V220.736C345.843 221.408 345.907 221.808 345.939 222H344.467C344.435 221.808 344.387 221.52 344.387 220.96C344.051 221.504 343.283 222.24 341.907 222.24C340.339 222.24 339.331 221.152 339.331 219.936ZM342.115 220.976C343.347 220.976 344.339 220.384 344.339 218.704V218.352L341.987 218.704C341.347 218.8 340.867 219.168 340.867 219.856C340.867 220.432 341.347 220.976 342.115 220.976ZM350.202 211.872V214.304H351.866V215.664H350.202V219.664C350.202 220.368 350.49 220.72 351.274 220.72C351.466 220.72 351.738 220.688 351.866 220.656V221.936C351.738 221.984 351.354 222.08 350.842 222.08C349.53 222.08 348.698 221.28 348.698 219.888V215.664H347.226V214.304H347.642C348.474 214.304 348.826 213.792 348.826 213.12V211.872H350.202ZM355.362 222H353.874V214.304H355.362V222ZM353.538 211.392C353.538 210.784 354.018 210.304 354.61 210.304C355.218 210.304 355.698 210.784 355.698 211.392C355.698 211.984 355.218 212.464 354.61 212.464C354.018 212.464 353.538 211.984 353.538 211.392ZM357.201 220L358.561 219.52C358.657 220.32 359.265 220.96 360.353 220.96C361.201 220.96 361.665 220.48 361.665 219.936C361.665 219.456 361.313 219.088 360.673 218.944L359.361 218.656C358.161 218.4 357.441 217.584 357.441 216.496C357.441 215.184 358.673 214.064 360.177 214.064C362.289 214.064 362.945 215.44 363.105 216.128L361.777 216.624C361.713 216.224 361.393 215.344 360.177 215.344C359.409 215.344 358.897 215.84 358.897 216.368C358.897 216.832 359.185 217.168 359.777 217.296L361.025 217.568C362.417 217.872 363.153 218.72 363.153 219.856C363.153 220.944 362.241 222.24 360.337 222.24C358.225 222.24 357.329 220.88 357.201 220ZM369.027 215.664H367.171V222H365.619V215.664H364.195V214.304H365.619V213.008C365.619 211.296 366.755 210.368 368.147 210.368C368.659 210.368 368.979 210.48 369.043 210.528V211.872C368.963 211.84 368.771 211.776 368.387 211.776C367.859 211.776 367.171 212.032 367.171 213.088V214.304H369.027V215.664ZM369.925 219.936C369.925 218.56 370.933 217.792 372.261 217.6L374.341 217.296C374.805 217.232 374.933 216.992 374.933 216.72C374.933 215.968 374.437 215.344 373.269 215.344C372.213 215.344 371.621 216 371.525 216.896L370.085 216.56C370.245 215.088 371.573 214.064 373.237 214.064C375.541 214.064 376.437 215.376 376.437 216.88V220.736C376.437 221.408 376.501 221.808 376.533 222H375.061C375.029 221.808 374.981 221.52 374.981 220.96C374.645 221.504 373.877 222.24 372.501 222.24C370.933 222.24 369.925 221.152 369.925 219.936ZM372.709 220.976C373.941 220.976 374.933 220.384 374.933 218.704V218.352L372.581 218.704C371.941 218.8 371.461 219.168 371.461 219.856C371.461 220.432 371.941 220.976 372.709 220.976ZM382.012 215.456C380.796 215.456 379.676 216.352 379.676 218.144C379.676 219.904 380.78 220.848 382.028 220.848C383.468 220.848 383.996 219.872 384.172 219.264L385.5 219.84C385.132 220.944 384.028 222.24 382.028 222.24C379.788 222.24 378.14 220.48 378.14 218.144C378.14 215.744 379.82 214.064 382.012 214.064C384.06 214.064 385.116 215.344 385.436 216.512L384.076 217.088C383.884 216.336 383.324 215.456 382.012 215.456ZM389.28 211.872V214.304H390.944V215.664H389.28V219.664C389.28 220.368 389.568 220.72 390.352 220.72C390.544 220.72 390.816 220.688 390.944 220.656V221.936C390.816 221.984 390.432 222.08 389.92 222.08C388.608 222.08 387.776 221.28 387.776 219.888V215.664H386.304V214.304H386.72C387.552 214.304 387.904 213.792 387.904 213.12V211.872H389.28ZM394.44 222H392.952V214.304H394.44V222ZM392.616 211.392C392.616 210.784 393.096 210.304 393.688 210.304C394.296 210.304 394.776 210.784 394.776 211.392C394.776 211.984 394.296 212.464 393.688 212.464C393.096 212.464 392.616 211.984 392.616 211.392ZM400.295 220.896C401.575 220.896 402.695 219.936 402.695 218.144C402.695 216.368 401.575 215.408 400.295 215.408C399.015 215.408 397.895 216.368 397.895 218.144C397.895 219.936 399.015 220.896 400.295 220.896ZM400.295 214.064C402.599 214.064 404.231 215.808 404.231 218.144C404.231 220.496 402.599 222.24 400.295 222.24C397.991 222.24 396.359 220.496 396.359 218.144C396.359 215.808 397.991 214.064 400.295 214.064ZM407.659 217.552V222H406.155V214.304H407.627V215.408C408.187 214.448 409.099 214.08 409.995 214.08C411.835 214.08 412.747 215.408 412.747 217.12V222H411.243V217.376C411.243 216.304 410.795 215.44 409.451 215.44C408.267 215.44 407.659 216.384 407.659 217.552Z" fill="white"/>
<path d="M215.024 104.62C218.261 80.5945 217.761 61.6629 215.006 40.4062C214.753 38.4537 213.083 37 211.114 37H178.32C175.925 37 174.086 39.1157 174.386 41.491C176.975 61.9727 177.432 80.3983 174.416 103.477C174.105 105.862 175.947 108 178.353 108H211.139C213.097 108 214.763 106.56 215.024 104.62Z" fill="#34C759"/>
<path d="M215.219 87.541C216.222 76.3087 215.944 68.0262 215.138 57.5971C214.928 54.8725 212.645 52.7778 209.912 52.7778H183.501C180.405 52.7778 177.988 55.4384 178.201 58.5266C178.82 67.5244 178.79 75.4745 178.113 86.5774C177.927 89.6262 180.334 92.2222 183.388 92.2222H210.044C212.721 92.2222 214.981 90.208 215.219 87.541Z" fill="#A7EE6C"/>
<path d="M200.775 87.463H195.011V69.2028H188.447V65.2899C192.444 65.2478 195.221 63.0179 195.768 60.1569H200.775V87.463Z" fill="#00675B"/>
<path d="M258.413 104.62C261.65 80.5945 261.149 61.6629 258.395 40.4062C258.142 38.4537 256.472 37 254.503 37H221.708C219.314 37 217.474 39.1157 217.775 41.491C220.364 61.9727 220.821 80.3983 217.805 103.477C217.494 105.862 219.336 108 221.742 108H254.528C256.486 108 258.151 106.56 258.413 104.62Z" fill="#34C759"/>
<path d="M257.914 89.934C258.96 78.3312 258.667 69.9016 257.838 59.1376C257.647 56.6583 255.572 54.75 253.085 54.75H226.264C223.452 54.75 221.255 57.1652 221.452 59.9698C222.109 69.3267 222.082 77.4732 221.37 89.0667C221.201 91.8362 223.389 94.1944 226.163 94.1944H253.203C255.64 94.1944 257.695 92.3614 257.914 89.934Z" fill="#A7EE6C"/>
<path d="M228.444 79.8055L233.872 78.5853C233.998 81.1098 235.934 83.1714 238.837 83.1714C241.445 83.1714 243.549 81.4464 243.549 78.7115C243.549 75.5981 241.235 74.1255 238.71 74.1255C236.859 74.1255 235.387 74.967 234.503 75.9767C233.956 75.7664 229.791 74.3358 229.202 74.1675L232.441 60.1569H247.841V65.1637H236.396L235.05 71.1803C236.228 70.0864 238.164 69.4973 239.973 69.4973C245.442 69.4973 249.313 72.7791 249.313 78.6274C249.313 83.7184 245.4 88.1361 238.837 88.1361C232.904 88.1361 228.781 84.097 228.444 79.8055Z" fill="#00675B"/>
<path d="M301.802 104.62C305.039 80.5945 304.538 61.6629 301.784 40.4062C301.531 38.4537 299.861 37 297.892 37H265.097C262.703 37 260.863 39.1157 261.164 41.491C263.753 61.9727 264.21 80.3983 261.194 103.477C260.882 105.862 262.725 108 265.131 108H297.917C299.875 108 301.54 106.56 301.802 104.62Z" fill="#34C759"/>
<path d="M301.302 89.934C302.349 78.3312 302.056 69.9016 301.227 59.1376C301.036 56.6583 298.961 54.75 296.474 54.75H269.653C266.841 54.75 264.644 57.1652 264.841 59.9698C265.497 69.3267 265.47 77.4732 264.759 89.0667C264.589 91.8362 266.777 94.1944 269.552 94.1944H296.592C299.029 94.1944 301.083 92.3614 301.302 89.934Z" fill="#A7EE6C"/>
<path d="M292.653 60.788L291.054 65.5003C289.876 64.9954 288.278 64.5326 286.553 64.5326C281.924 64.5326 278.138 67.2253 277.507 72.3584C278.516 70.8437 280.788 69.329 283.986 69.329C289.582 69.329 293.411 72.8632 293.411 78.5012C293.411 84.097 288.867 88.0941 282.85 88.0941C276.875 88.0941 271.785 83.8025 271.785 75.556C271.785 65.7527 277.927 59.5258 286.931 59.5258C289.456 59.5258 291.517 60.1148 292.653 60.788ZM278.011 78.6274C278.011 81.4043 280.283 83.2135 282.808 83.2135C285.459 83.2135 287.646 81.4464 287.646 78.6274C287.646 75.8084 285.459 74.0834 282.808 74.0834C280.199 74.0834 278.011 75.8084 278.011 78.6274Z" fill="#00675B"/>
<path d="M345.191 104.62C348.428 80.5945 347.927 61.6629 345.173 40.4062C344.92 38.4537 343.25 37 341.281 37H308.486C306.092 37 304.252 39.1157 304.552 41.491C307.141 61.9727 307.599 80.3983 304.583 103.477C304.271 105.862 306.114 108 308.52 108H341.306C343.264 108 344.929 106.56 345.191 104.62Z" fill="#34C759"/>
<path d="M344.691 89.934C345.738 78.3312 345.445 69.9016 344.616 59.1376C344.425 56.6583 342.35 54.75 339.863 54.75H313.042C310.23 54.75 308.033 57.1652 308.229 59.9698C308.886 69.3267 308.859 77.4732 308.148 89.0667C307.978 91.8362 310.166 94.1944 312.941 94.1944H339.981C342.418 94.1944 344.472 92.3614 344.691 89.934Z" fill="#A7EE6C"/>
<path d="M321.507 70.7175L315.995 70.5492C315.911 70.1705 315.785 69.329 315.785 68.6558C315.785 63.8594 319.403 59.5258 325.756 59.5258C331.857 59.5258 335.602 63.5649 335.602 68.3192C335.602 71.8535 333.666 74.7145 330.3 76.7761L325.041 79.9738C323.989 80.647 323.106 81.4043 322.685 82.4561H335.77V87.463H315.574C315.617 82.6665 317.131 78.7536 322.012 75.8084L326.514 73.1157C328.828 71.7272 329.753 70.2967 329.753 68.4034C329.753 66.4259 328.365 64.6588 325.63 64.6588C322.727 64.6588 321.297 66.6363 321.297 69.2028C321.297 69.7077 321.381 70.2547 321.507 70.7175Z" fill="#00675B"/>
<path d="M388.579 104.62C391.817 80.5945 391.316 61.6629 388.562 40.4062C388.309 38.4537 386.639 37 384.67 37H351.875C349.481 37 347.641 39.1157 347.941 41.491C350.53 61.9727 350.988 80.3983 347.972 103.477C347.66 105.862 349.503 108 351.909 108H384.695C386.653 108 388.318 106.56 388.579 104.62Z" fill="#34C759"/>
<path d="M388.08 89.934C389.127 78.3312 388.834 69.9016 388.005 59.1376C387.814 56.6583 385.739 54.75 383.252 54.75H356.431C353.619 54.75 351.421 57.1652 351.618 59.9698C352.275 69.3267 352.248 77.4732 351.537 89.0667C351.367 91.8362 353.555 94.1944 356.33 94.1944H383.37C385.807 94.1944 387.861 92.3614 388.08 89.934Z" fill="#A7EE6C"/>
<path d="M379.431 60.788L377.832 65.5003C376.654 64.9954 375.055 64.5326 373.33 64.5326C368.702 64.5326 364.916 67.2253 364.284 72.3584C365.294 70.8437 367.566 69.329 370.764 69.329C376.36 69.329 380.188 72.8632 380.188 78.5012C380.188 84.097 375.644 88.0941 369.628 88.0941C363.653 88.0941 358.562 83.8025 358.562 75.556C358.562 65.7527 364.705 59.5258 373.709 59.5258C376.233 59.5258 378.295 60.1148 379.431 60.788ZM364.789 78.6274C364.789 81.4043 367.061 83.2135 369.586 83.2135C372.236 83.2135 374.424 81.4464 374.424 78.6274C374.424 75.8084 372.236 74.0834 369.586 74.0834C366.977 74.0834 364.789 75.8084 364.789 78.6274Z" fill="#00675B"/>
<path d="M431.968 104.62C435.206 80.5945 434.705 61.6629 431.951 40.4062C431.698 38.4537 430.027 37 428.059 37H395.264C392.87 37 391.03 39.1157 391.33 41.491C393.919 61.9727 394.377 80.3983 391.361 103.477C391.049 105.862 392.892 108 395.298 108H428.084C430.042 108 431.707 106.56 431.968 104.62Z" fill="#34C759"/>
<path d="M431.469 89.934C432.516 78.3312 432.223 69.9016 431.394 59.1376C431.203 56.6583 429.128 54.75 426.641 54.75H399.82C397.008 54.75 394.81 57.1652 395.007 59.9698C395.664 69.3267 395.637 77.4732 394.926 89.0667C394.756 91.8362 396.944 94.1944 399.719 94.1944H426.759C429.196 94.1944 431.25 92.3614 431.469 89.934Z" fill="#A7EE6C"/>
<path d="M408.285 70.7175L402.773 70.5492C402.689 70.1705 402.563 69.329 402.563 68.6558C402.563 63.8594 406.181 59.5258 412.534 59.5258C418.635 59.5258 422.38 63.5649 422.38 68.3192C422.38 71.8535 420.444 74.7145 417.078 76.7761L411.819 79.9738C410.767 80.647 409.884 81.4043 409.463 82.4561H422.548V87.463H402.352C402.394 82.6665 403.909 78.7536 408.79 75.8084L413.292 73.1157C415.606 71.7272 416.531 70.2967 416.531 68.4034C416.531 66.4259 415.143 64.6588 412.408 64.6588C409.505 64.6588 408.074 66.6363 408.074 69.2028C408.074 69.7077 408.159 70.2547 408.285 70.7175Z" fill="#00675B"/>
<path d="M-22 265.424C-20.062 260.863 -5.76456 244.355 21.292 253.013C27.5 255 28.8581 256.889 30.1795 259.513C32.6837 264.484 32.8124 269.32 31.1974 273.871C26.1741 288.028 15.2137 289.561 11.9543 289.571C10.4878 289.576 9.98697 286.997 10.9462 285.03C16.1079 274.443 28.8581 270.671 43.5204 264.142C57.7281 257.816 77.5322 260.959 83.3573 268.008C84.3331 269.189 85.105 270.98 85.6832 273.246C89.3737 287.709 83.7232 303.538 71.0343 311.398V311.398C68.0686 313.053 66.1306 313.699 62.1762 314.364" stroke="#1AAF6B" stroke-width="8" stroke-linecap="round"/>
<path d="M278.002 243C273.591 243 270 246.588 270 250.998C270 255.409 273.591 259 278.002 259C282.406 259 285.99 255.409 285.99 250.998C285.99 246.588 282.406 243 278.002 243ZM280.787 251.57H278.002C277.686 251.57 277.431 251.315 277.431 250.999V246.054C277.431 245.738 277.686 245.483 278.002 245.483C278.319 245.483 278.574 245.738 278.574 246.054V250.426H280.787C281.103 250.426 281.358 250.681 281.358 250.998C281.358 251.314 281.102 251.57 280.787 251.57Z" fill="#1AAF6B"/>
<path fill-rule="evenodd" clip-rule="evenodd" d="M303.704 258.8C300.592 255.976 294.684 251.506 295.002 247.554C295.221 244.872 297.047 242.881 299.695 243.006C301.608 243.096 303.592 244.302 304.221 246.77C304.853 244.31 306.836 243.095 308.747 243.006C311.393 242.882 313.219 244.873 313.438 247.555C313.757 251.506 307.847 255.977 304.737 258.8C304.444 259.067 303.997 259.067 303.704 258.8Z" fill="#FC2A2A"/>
<path d="M330.45 243C326.03 243 322.45 246.58 322.45 251C322.45 255.42 326.03 259 330.45 259C334.87 259 338.45 255.42 338.45 251C338.45 246.58 334.87 243 330.45 243ZM335.03 249.22L330.05 254.2C329.87 254.38 329.61 254.5 329.35 254.5C329.09 254.5 328.83 254.38 328.65 254.2L325.87 251.42C325.47 251.02 325.47 250.4 325.87 250C326.27 249.6 326.891 249.6 327.291 250L329.351 252.06L333.61 247.8C334.01 247.4 334.631 247.4 335.031 247.8C335.43 248.2 335.43 248.84 335.03 249.22H335.03Z" fill="#34C759"/>
</g>
<defs>
<clipPath id="clip0_598_2473">
<rect width="608" height="296" fill="white"/>
</clipPath>
</defs>
</svg>
