<svg width="21" height="20" viewBox="0 0 21 20" fill="none" xmlns="http://www.w3.org/2000/svg">
<path d="M11.6727 7.49996H10.006V5.83329H11.6727M11.6727 14.1666H10.006V9.16663H11.6727M10.8394 1.66663C9.74501 1.66663 8.66137 1.88217 7.65033 2.30096C6.63928 2.71975 5.72062 3.33358 4.9468 4.1074C3.384 5.67021 2.50602 7.78982 2.50602 9.99996C2.50602 12.2101 3.384 14.3297 4.9468 15.8925C5.72062 16.6663 6.63928 17.2802 7.65033 17.699C8.66137 18.1177 9.74501 18.3333 10.8394 18.3333C13.0495 18.3333 15.1691 17.4553 16.7319 15.8925C18.2947 14.3297 19.1727 12.2101 19.1727 9.99996C19.1727 8.90561 18.9571 7.82198 18.5384 6.81093C18.1196 5.79988 17.5057 4.88122 16.7319 4.1074C15.9581 3.33358 15.0394 2.71975 14.0284 2.30096C13.0173 1.88217 11.9337 1.66663 10.8394 1.66663Z" fill="#FEB355"/>
</svg>
