<svg width="29" height="28" viewBox="0 0 29 28" fill="none" xmlns="http://www.w3.org/2000/svg">
<path d="M18.9984 9.10907C18.485 9.10907 18.0649 9.52914 18.0649 10.0426C18.0649 10.5653 18.485 10.9854 18.9984 10.9854C19.5212 10.9854 19.9413 10.5653 19.9413 10.0426C19.9319 9.52914 19.5118 9.10907 18.9984 9.10907Z" fill="#123D64"/>
<path d="M14.8253 10.3177C12.6503 10.3177 10.886 12.082 10.886 14.2571C10.886 16.4321 12.6503 18.1964 14.8253 18.1964C17.0003 18.1964 18.7646 16.4321 18.7646 14.2571C18.7646 12.082 17.0003 10.3177 14.8253 10.3177ZM14.8253 16.7868C13.4344 16.7868 12.3049 15.6573 12.3049 14.2664C12.3049 12.8755 13.4344 11.746 14.8253 11.746C16.2162 11.746 17.3457 12.8755 17.3457 14.2664C17.3457 15.6573 16.2162 16.7868 14.8253 16.7868Z" fill="#123D64"/>
<path d="M17.9525 22.2545H11.5675C8.91637 22.2545 6.76001 20.0982 6.76001 17.4471V11.062C6.76001 8.41088 8.91637 6.25452 11.5675 6.25452H17.9525C20.6037 6.25452 22.76 8.41088 22.76 11.062V17.4471C22.76 20.0982 20.6037 22.2545 17.9525 22.2545ZM11.5581 7.75743C9.73784 7.75743 8.25359 9.24168 8.25359 11.062V17.4471C8.25359 19.2674 9.73784 20.7516 11.5581 20.7516H17.9432C19.7635 20.7516 21.2478 19.2674 21.2478 17.4471V11.062C21.2478 9.24168 19.7635 7.75743 17.9432 7.75743H11.5581Z" fill="#123D64"/>
</svg>
