<svg width="29" height="28" viewBox="0 0 29 28" fill="none" xmlns="http://www.w3.org/2000/svg">
<path d="M6.74867 11.5502H10.0732V22.2404H6.74867V11.5502ZM8.41681 6.24036C9.48583 6.24036 10.3434 7.09792 10.3434 8.16693C10.3434 9.2242 9.48583 10.0935 8.41681 10.0935C7.3478 10.0935 6.49023 9.2242 6.49023 8.16693C6.49023 7.09792 7.3478 6.24036 8.41681 6.24036Z" fill="#123D64"/>
<path d="M12.1642 11.5494H15.3478V13.006H15.3948C15.8412 12.1602 16.9219 11.2792 18.5431 11.2792C21.9028 11.2792 22.5254 13.4877 22.5254 16.3658V22.2278H19.2009V17.0354C19.2009 15.7902 19.1774 14.2043 17.474 14.2043C15.7472 14.2043 15.477 15.5552 15.477 16.9532V22.2395H12.1525V11.5494H12.1642Z" fill="#123D64"/>
</svg>
