<svg width="20" height="20" viewBox="0 0 20 20" fill="none" xmlns="http://www.w3.org/2000/svg">
<path fill-rule="evenodd" clip-rule="evenodd" d="M10.4908 8.2865C8.95519 8.2865 7.71033 9.53136 7.71033 11.067C7.71033 12.6026 8.95519 13.8474 10.4908 13.8474C12.0264 13.8474 13.2713 12.6026 13.2713 11.067C13.2713 9.53136 12.0264 8.2865 10.4908 8.2865ZM10.9542 10.1401C10.9542 9.8842 10.7467 9.67673 10.4908 9.67673C10.2349 9.67673 10.0274 9.8842 10.0274 10.1401V10.424L9.94221 10.3956C9.69943 10.3147 9.437 10.4459 9.35604 10.6887C9.27513 10.9315 9.40632 11.1939 9.64915 11.2749L10.3443 11.5066C10.4856 11.5537 10.6409 11.53 10.7618 11.4429C10.8826 11.3558 10.9542 11.2159 10.9542 11.067V10.1401Z" fill="#E89F02"/>
<path fill-rule="evenodd" clip-rule="evenodd" d="M6.78339 3.65247C6.01559 3.65247 5.39316 4.2749 5.39316 5.0427V15.2377C5.39316 16.0056 6.01559 16.628 6.78339 16.628H14.198C14.9658 16.628 15.5882 16.0056 15.5882 15.2377V6.89635C15.5882 6.77344 15.5394 6.65557 15.4525 6.56866L12.672 3.78819C12.5851 3.70129 12.4672 3.65247 12.3443 3.65247H6.78339ZM6.31998 5.0427C6.31998 4.78677 6.52746 4.57929 6.78339 4.57929H11.8809V6.89635C11.8809 7.15228 12.0884 7.35976 12.3443 7.35976H14.6614V15.2377C14.6614 15.4937 14.4539 15.7012 14.198 15.7012H6.78339C6.52746 15.7012 6.31998 15.4937 6.31998 15.2377V5.0427Z" fill="#E89F02"/>
</svg>
