<svg width="32" height="388" viewBox="0 0 32 388" fill="none" xmlns="http://www.w3.org/2000/svg">
<rect x="19" y="11" width="375" height="5" transform="rotate(90 19 11)" fill="#DDDDDD"/>
<rect x="18" y="16" width="353" height="5" transform="rotate(90 18 16)" fill="#34C759"/>
<rect x="18" y="253" width="116" height="5" transform="rotate(90 18 253)" fill="#FDCCCC"/>
<circle cx="16" cy="16" r="16" transform="rotate(90 16 16)" fill="#A7EE6C"/>
<circle cx="16.0016" cy="16" r="12.8" transform="rotate(90 16.0016 16)" fill="#36BE76"/>
<path d="M14.0861 19.9502C13.9973 19.9502 13.9139 19.9362 13.8361 19.9082C13.7584 19.8806 13.6861 19.8335 13.6195 19.7668L10.7528 16.9002C10.6306 16.7779 10.5721 16.6195 10.5775 16.4248C10.5833 16.2306 10.6473 16.0724 10.7695 15.9502C10.8917 15.8279 11.0473 15.7668 11.2361 15.7668C11.425 15.7668 11.5806 15.8279 11.7028 15.9502L14.0861 18.3335L19.7361 12.6835C19.8584 12.5613 20.0168 12.5002 20.2115 12.5002C20.4057 12.5002 20.5639 12.5613 20.6861 12.6835C20.8084 12.8057 20.8695 12.9639 20.8695 13.1582C20.8695 13.3528 20.8084 13.5113 20.6861 13.6335L14.5528 19.7668C14.4861 19.8335 14.4139 19.8806 14.3361 19.9082C14.2584 19.9362 14.175 19.9502 14.0861 19.9502Z" fill="white"/>
<circle cx="16" cy="135" r="16" transform="rotate(90 16 135)" fill="#A7EE6C"/>
<circle cx="16.0016" cy="135" r="12.8" transform="rotate(90 16.0016 135)" fill="#36BE76"/>
<path d="M14.0861 138.95C13.9973 138.95 13.9139 138.936 13.8361 138.908C13.7584 138.881 13.6861 138.833 13.6195 138.767L10.7528 135.9C10.6306 135.778 10.5721 135.619 10.5775 135.425C10.5833 135.231 10.6473 135.072 10.7695 134.95C10.8917 134.828 11.0473 134.767 11.2361 134.767C11.425 134.767 11.5806 134.828 11.7028 134.95L14.0861 137.333L19.7361 131.683C19.8584 131.561 20.0168 131.5 20.2115 131.5C20.4057 131.5 20.5639 131.561 20.6861 131.683C20.8084 131.806 20.8695 131.964 20.8695 132.158C20.8695 132.353 20.8084 132.511 20.6861 132.633L14.5528 138.767C14.4861 138.833 14.4139 138.881 14.3361 138.908C14.2584 138.936 14.175 138.95 14.0861 138.95Z" fill="white"/>
<circle cx="16" cy="266" r="16" transform="rotate(90 16 266)" fill="#A7EE6C"/>
<circle cx="16.0016" cy="266" r="12.8" transform="rotate(90 16.0016 266)" fill="#36BE76"/>
<path d="M14.0861 269.95C13.9973 269.95 13.9139 269.936 13.8361 269.908C13.7584 269.881 13.6861 269.833 13.6195 269.767L10.7528 266.9C10.6306 266.778 10.5721 266.619 10.5775 266.425C10.5833 266.231 10.6473 266.072 10.7695 265.95C10.8917 265.828 11.0473 265.767 11.2361 265.767C11.425 265.767 11.5806 265.828 11.7028 265.95L14.0861 268.333L19.7361 262.683C19.8584 262.561 20.0168 262.5 20.2115 262.5C20.4057 262.5 20.5639 262.561 20.6861 262.683C20.8084 262.806 20.8695 262.964 20.8695 263.158C20.8695 263.353 20.8084 263.511 20.6861 263.633L14.5528 269.767C14.4861 269.833 14.4139 269.881 14.3361 269.908C14.2584 269.936 14.175 269.95 14.0861 269.95Z" fill="white"/>
<circle cx="16" cy="372" r="16" transform="rotate(90 16 372)" fill="#A7EE6C"/>
<circle cx="16.0016" cy="372" r="12.8" transform="rotate(90 16.0016 372)" fill="#36BE76"/>
<path d="M14.0861 375.95C13.9973 375.95 13.9139 375.936 13.8361 375.908C13.7584 375.881 13.6861 375.833 13.6195 375.767L10.7528 372.9C10.6306 372.778 10.5721 372.619 10.5775 372.425C10.5833 372.231 10.6473 372.072 10.7695 371.95C10.8917 371.828 11.0473 371.767 11.2361 371.767C11.425 371.767 11.5806 371.828 11.7028 371.95L14.0861 374.333L19.7361 368.683C19.8584 368.561 20.0168 368.5 20.2115 368.5C20.4057 368.5 20.5639 368.561 20.6861 368.683C20.8084 368.806 20.8695 368.964 20.8695 369.158C20.8695 369.353 20.8084 369.511 20.6861 369.633L14.5528 375.767C14.4861 375.833 14.4139 375.881 14.3361 375.908C14.2584 375.936 14.175 375.95 14.0861 375.95Z" fill="white"/>
<circle cx="16" cy="372" r="16" transform="rotate(90 16 372)" fill="#FEDEDE"/>
<circle cx="16.0016" cy="372" r="12.8" transform="rotate(90 16.0016 372)" fill="#FDCCCC"/>
<path d="M16 365.333C12.32 365.333 9.33331 368.32 9.33331 372C9.33331 375.68 12.32 378.667 16 378.667C19.68 378.667 22.6666 375.68 22.6666 372C22.6666 368.32 19.68 365.333 16 365.333ZM16 372.667C15.6333 372.667 15.3333 372.367 15.3333 372V369.333C15.3333 368.967 15.6333 368.667 16 368.667C16.3666 368.667 16.6666 368.967 16.6666 369.333V372C16.6666 372.367 16.3666 372.667 16 372.667ZM16.6666 375.333H15.3333V374H16.6666V375.333Z" fill="#FC2A2A"/>
</svg>
