<svg width="32" height="384" viewBox="0 0 32 384" fill="none" xmlns="http://www.w3.org/2000/svg">
<rect x="19" y="11" width="373" height="5" transform="rotate(90 19 11)" fill="#DDDDDD"/>
<rect x="18.1235" y="16.2379" width="127.872" height="5" transform="rotate(90 18.1235 16.2379)" fill="#34C759"/>
<circle cx="15.2805" cy="265.327" r="12.2805" transform="rotate(90 15.2805 265.327)" fill="#D0CFCF"/>
<circle cx="15.2818" cy="265.327" r="9.82439" transform="rotate(90 15.2818 265.327)" fill="#FBFBFB"/>
<circle cx="16.2805" cy="135.28" r="12.2805" transform="rotate(90 16.2805 135.28)" fill="#D0CFCF"/>
<circle cx="16.2818" cy="135.28" r="9.82439" transform="rotate(90 16.2818 135.28)" fill="#FBFBFB"/>
<circle cx="16.2805" cy="371.28" r="12.2805" transform="rotate(90 16.2805 371.28)" fill="#D0CFCF"/>
<circle cx="16.2805" cy="371.28" r="12.2805" transform="rotate(90 16.2805 371.28)" stroke="#CCCCCC"/>
<circle cx="16.2818" cy="371.28" r="9.82439" transform="rotate(90 16.2818 371.28)" fill="#FBFBFB"/>
<circle cx="16" cy="16" r="16" transform="rotate(90 16 16)" fill="#A7EE6C"/>
<circle cx="16.0016" cy="16" r="12.8" transform="rotate(90 16.0016 16)" fill="#36BE76"/>
<path d="M14.0861 19.9502C13.9973 19.9502 13.9139 19.9362 13.8361 19.9082C13.7584 19.8806 13.6861 19.8335 13.6195 19.7668L10.7528 16.9002C10.6306 16.7779 10.5721 16.6195 10.5775 16.4248C10.5833 16.2306 10.6473 16.0724 10.7695 15.9502C10.8917 15.8279 11.0473 15.7668 11.2361 15.7668C11.425 15.7668 11.5806 15.8279 11.7028 15.9502L14.0861 18.3335L19.7361 12.6835C19.8584 12.5613 20.0168 12.5002 20.2115 12.5002C20.4057 12.5002 20.5639 12.5613 20.6861 12.6835C20.8084 12.8057 20.8695 12.9639 20.8695 13.1582C20.8695 13.3528 20.8084 13.5113 20.6861 13.6335L14.5528 19.7668C14.4861 19.8335 14.4139 19.8806 14.3361 19.9082C14.2584 19.9362 14.175 19.9502 14.0861 19.9502Z" fill="white"/>
</svg>
