<svg width="28" height="28" viewBox="0 0 28 28" fill="none" xmlns="http://www.w3.org/2000/svg">
<path d="M22.7905 8.59729C22.2145 8.85704 21.5821 9.01516 20.9722 9.1168C21.2658 9.07163 21.695 8.54082 21.8644 8.32624C22.1242 7.99872 22.35 7.62601 22.4743 7.21944C22.4856 7.18556 22.4969 7.15168 22.4743 7.12909C22.4291 7.1178 22.4065 7.11779 22.3726 7.14038C21.6837 7.51308 20.9722 7.77284 20.2155 7.96483C20.1477 7.97613 20.1026 7.96484 20.0687 7.93095C20.0009 7.86319 19.9445 7.79543 19.8767 7.73896C19.5605 7.46791 19.2217 7.25333 18.8264 7.09521C18.3181 6.89192 17.7647 6.80157 17.2226 6.83545C16.6918 6.86933 16.1723 7.01615 15.698 7.26461C15.2236 7.51308 14.8058 7.85189 14.4669 8.26976C14.1168 8.69893 13.8684 9.20716 13.7328 9.73797C13.6086 10.2575 13.6199 10.7657 13.699 11.2852C13.7103 11.3756 13.699 11.3869 13.6199 11.3756C10.6496 10.9351 8.19887 9.87349 6.19986 7.60343C6.10951 7.50179 6.06433 7.50179 5.99657 7.61473C5.12694 8.92481 5.54481 11.0255 6.64032 12.0645C6.78714 12.2 6.93396 12.3355 7.09207 12.4711C7.0356 12.4824 6.3128 12.4033 5.65775 12.0645C5.5674 12.008 5.52223 12.0419 5.52223 12.1436C5.51093 12.2904 5.52223 12.4146 5.54481 12.5727C5.71422 13.8941 6.62902 15.1251 7.89393 15.6108C8.04075 15.6785 8.21016 15.7237 8.36827 15.7576C8.08593 15.8253 7.78099 15.8705 6.96784 15.8028C6.86619 15.7802 6.82102 15.8366 6.86619 15.927C7.48735 17.6098 8.82003 18.118 9.81388 18.4003C9.94941 18.4229 10.0849 18.4229 10.2205 18.4568C10.2092 18.4681 10.2092 18.4681 10.1979 18.4794C9.87035 18.9876 8.71838 19.3603 8.18757 19.5523C7.2163 19.8911 6.15468 20.0492 5.12694 19.9476C4.95753 19.925 4.92365 19.925 4.87848 19.9476C4.8333 19.9702 4.86718 20.0154 4.92365 20.0605C5.12694 20.1961 5.34153 20.3203 5.55611 20.4332C6.21115 20.7833 6.88878 21.0544 7.60029 21.2464C11.2821 22.2628 15.4156 21.5174 18.1826 18.773C20.351 16.6159 21.1077 13.6456 21.1077 10.6754C21.1077 10.5624 21.2432 10.4947 21.3223 10.4382C21.887 10.009 22.3387 9.51209 22.7566 8.9361C22.847 8.81187 22.847 8.69893 22.847 8.65376C22.847 8.64246 22.847 8.64246 22.847 8.64246C22.8696 8.55211 22.8583 8.5747 22.7905 8.59729Z" fill="#123D64"/>
</svg>
