<svg width="20" height="20" viewBox="0 0 20 20" fill="none" xmlns="http://www.w3.org/2000/svg">
<path d="M4.0686 11.3906L4.7277 12.0485C4.80806 12.1286 4.87177 12.2238 4.91518 12.3286C4.95858 12.4334 4.98081 12.5458 4.9806 12.6593V13.4301C4.98107 13.899 5.16753 14.3486 5.49906 14.6802C5.83059 15.0119 6.28013 15.1985 6.74907 15.1991H7.51983C7.74858 15.1999 7.96781 15.2908 8.13004 15.452L8.78854 16.1105C9.12044 16.4418 9.57021 16.6279 10.0391 16.6279C10.5081 16.6279 10.9579 16.4418 11.2898 16.1105L11.9476 15.452C12.1102 15.2908 12.3296 15.2 12.5585 15.1991H13.3298C13.7988 15.1985 14.2483 15.0119 14.5798 14.6802C14.9114 14.3486 15.0978 13.899 15.0983 13.4301V12.6593C15.0981 12.5458 15.1203 12.4334 15.1637 12.3286C15.2071 12.2238 15.2708 12.1286 15.3512 12.0485L16.0097 11.3906C16.3408 11.0586 16.5268 10.6089 16.5268 10.14C16.5268 9.67109 16.3408 9.22135 16.0097 8.88937L15.3506 8.23148C15.2702 8.15138 15.2065 8.05617 15.1631 7.95134C15.1197 7.84651 15.0975 7.73412 15.0977 7.62066V6.8499C15.0972 6.38096 14.9108 5.93136 14.5792 5.59971C14.2477 5.26807 13.7982 5.08146 13.3292 5.08082H12.5585C12.3298 5.08021 12.1106 4.98957 11.9483 4.82853L11.2898 4.16943C10.9578 3.8383 10.508 3.65234 10.0391 3.65234C9.57026 3.65234 9.12052 3.8383 8.78854 4.16943L8.13065 4.82853C7.96812 4.98972 7.74873 5.08055 7.51983 5.08143H6.74846C6.27953 5.08206 5.82999 5.26867 5.49846 5.60032C5.16693 5.93196 4.98047 6.38156 4.97999 6.8505V7.62066C4.98029 7.73408 4.95815 7.84644 4.91485 7.95127C4.87155 8.0561 4.80795 8.15133 4.7277 8.23148L4.0686 8.88937C3.73747 9.22135 3.55151 9.67109 3.55151 10.14C3.55151 10.6089 3.73747 11.0586 4.0686 11.3906ZM7.90853 9.82129C7.95052 9.77924 8.00038 9.74589 8.05527 9.72313C8.11017 9.70037 8.169 9.68865 8.22843 9.68865C8.28785 9.68865 8.34669 9.70037 8.40158 9.72313C8.45647 9.74589 8.50633 9.77924 8.54832 9.82129L9.43557 10.7067L11.53 8.61294C11.6158 8.53298 11.7293 8.48944 11.8466 8.49151C11.9638 8.49358 12.0757 8.54109 12.1587 8.62403C12.2416 8.70697 12.2891 8.81886 12.2912 8.93614C12.2933 9.05341 12.2497 9.16691 12.1698 9.25272L9.75547 11.667C9.71352 11.7091 9.66367 11.7426 9.60877 11.7654C9.55388 11.7882 9.49502 11.7999 9.43557 11.7999C9.37613 11.7999 9.31727 11.7882 9.26238 11.7654C9.20748 11.7426 9.15763 11.7091 9.11568 11.667L7.90853 10.4599C7.86649 10.4179 7.83313 10.368 7.81037 10.3131C7.78761 10.2582 7.77589 10.1994 7.77589 10.14C7.77589 10.0806 7.78761 10.0217 7.81037 9.96683C7.83313 9.91194 7.86649 9.86207 7.90853 9.82008V9.82129Z" fill="#97E7AC"/>
</svg>
